<svg xmlns="http://www.w3.org/2000/svg" xmlns:xlink="http://www.w3.org/1999/xlink" viewBox="0,0,256,256" width="48px" height="48px" fill-rule="nonzero"><defs><linearGradient x1="25.408" y1="29.2" x2="-3.966" y2="-0.174" gradientUnits="userSpaceOnUse" id="color-1"><stop offset="0" stop-color="#e1a4ff"></stop><stop offset="0.447" stop-color="#f05dff"></stop><stop offset="1" stop-color="#e801ff"></stop></linearGradient><linearGradient x1="36.687" y1="32" x2="14.511" y2="18.237" gradientUnits="userSpaceOnUse" id="color-2"><stop offset="0" stop-color="#ba02ff" stop-opacity="0.4"></stop><stop offset="1" stop-color="#db69ff" stop-opacity="0.4"></stop></linearGradient><linearGradient x1="25.149" y1="20.567" x2="42.364" y2="40.186" gradientUnits="userSpaceOnUse" id="color-3"><stop offset="0" stop-color="#f8b0ff" stop-opacity="0.10196"></stop><stop offset="1" stop-color="#ff02f8" stop-opacity="0.30196"></stop></linearGradient></defs><g fill="none" fill-rule="nonzero" stroke="none" stroke-width="1" stroke-linecap="butt" stroke-linejoin="miter" stroke-miterlimit="10" stroke-dasharray="" stroke-dashoffset="0" font-family="none" font-weight="none" font-size="none" text-anchor="none" style="mix-blend-mode: normal"><g transform="scale(5.33333,5.33333)"><path d="M20.9,13.981c-2.2,0 -4,1.8 -4,4v16c0,0.263 0.029,0.519 0.078,0.769h10.022c2.383,0 4.362,-1.803 4.622,-4.094c0.082,-0.203 0.128,-1.911 0.128,-2.142v-13.034c0,-0.15 -0.019,-0.921 -0.055,-1.498h-10.795z" fill="#c514f4" opacity="0.4"></path><path d="M20.9,13.981c-2.2,0 -4,1.8 -4,4v16c0,0.537 0.11,1.049 0.305,1.519h9.795c2.566,0 4.725,-1.807 5.245,-4.188c0.164,-0.405 0.255,-1.839 0.255,-2.303v-14.022c0,-0.204 -0.018,-0.596 -0.052,-1.005h-11.548z" fill="#c514f4" opacity="0.3"></path><path d="M20.9,13.981c-2.2,0 -4,1.8 -4,4v16c0,0.842 0.267,1.622 0.715,2.269h9.385c2.75,0 5.087,-1.81 5.867,-4.283c0.247,-0.608 0.383,-1.768 0.383,-2.463v-15.011c0,-0.15 -0.009,-0.328 -0.022,-0.512z" fill="#c514f4" opacity="0.2"></path><path d="M34,25.675v-11.675c0,-0.006 -0.001,-0.012 -0.001,-0.019h-13.099c-2.2,0 -4,1.8 -4,4v16c0,1.209 0.555,2.284 1.409,3.019h8.691c3.86,0 7,-3.141 7,-7v-3.657c-0.016,-0.226 -0.014,-0.449 0,-0.668z" fill="#c514f4" opacity="0.1"></path><path d="M31,14c0,-2.2 -1.8,-4 -4,-4h-4c-0.7,0 -1.1,-0.8 -0.7,-1.4c0.6,-1 0.9,-2.2 0.6,-3.5c-0.4,-2 -1.9,-3.6 -3.8,-4c-3.3,-0.7 -6.1,1.8 -6.1,4.9c0,1 0.3,1.8 0.7,2.6c0.4,0.6 0,1.4 -0.8,1.4h-4c-2.2,0 -4,1.8 -4,4v3c0,0.7 0.8,1.1 1.4,0.7c1,-0.6 2.2,-0.9 3.5,-0.6c2,0.4 3.6,1.9 4,3.8c0.7,3.2 -1.8,6.1 -4.9,6.1c-1,0 -1.8,-0.3 -2.6,-0.7c-0.5,-0.4 -1.3,0 -1.3,0.7v3c0,2.2 1.8,4 4,4h18c2.2,0 4,-1.8 4,-4z" fill="url(#color-1)"></path><path d="M27,34c2.2,0 4,-1.8 4,-4v-16c0,-0.144 -0.032,-0.279 -0.047,-0.419h-10.053c-2.42,0 -4.4,1.98 -4.4,4.4v16c0.007,0.007 0.011,0.011 0.019,0.019z" fill="#c514f4" opacity="0.4"></path><path d="M27,34c2.2,0 4,-1.8 4,-4v-16c0,-0.281 -0.035,-0.554 -0.092,-0.819h-10.008c-2.64,0 -4.8,2.16 -4.8,4.8v16.017c0.001,0 0.001,0.001 0.002,0.001h10.898z" fill="#c514f4" opacity="0.3"></path><path d="M27,34c2.2,0 4,-1.8 4,-4v-16c0,-0.429 -0.091,-0.832 -0.219,-1.219h-9.881c-2.86,0 -5.2,2.34 -5.2,5.2v16c0.007,0.007 0.011,0.011 0.019,0.019z" fill="#c514f4" opacity="0.2"></path><path d="M27,34c2.2,0 4,-1.8 4,-4v-16c0,-0.578 -0.132,-1.124 -0.359,-1.619h-9.741c-3.093,0 -5.6,2.507 -5.6,5.6v16c0.007,0.007 0.011,0.011 0.019,0.019z" fill="#c514f4" opacity="0.1"></path><path d="M27,34c2.2,0 4,-1.8 4,-4v-16c0,-0.743 -0.228,-1.424 -0.588,-2.019h-9.512c-3.314,0 -6,2.686 -6,6v16c0.007,0.007 0.011,0.011 0.019,0.019z" fill="#c514f4" opacity="0.05"></path><path d="M16.9,33.982c0,2.2 1.8,4 4,4h4c0.7,0 1.1,0.8 0.7,1.4c-0.6,1 -0.9,2.2 -0.6,3.5c0.4,2 1.9,3.6 3.8,4c3.3,0.7 6.1,-1.8 6.1,-4.9c0,-1 -0.3,-1.8 -0.7,-2.6c-0.4,-0.6 0,-1.4 0.8,-1.4h4c2.2,0 4,-1.8 4,-4v-3c0,-0.7 -0.8,-1.1 -1.4,-0.7c-1,0.6 -2.2,0.9 -3.5,0.6c-2,-0.4 -3.6,-1.9 -4,-3.8c-0.7,-3.2 1.8,-6.1 4.9,-6.1c1,0 1.8,0.3 2.6,0.7c0.5,0.4 1.3,0 1.3,-0.7v-3c0,-2.2 -1.8,-4 -4,-4h-18c-2.2,0 -4,1.8 -4,4z" fill="url(#color-2)"></path><path d="M38.9,14.481c1.93,0 3.5,1.57 3.5,3.5v3c0,0.234 -0.2,0.359 -0.345,0.359c-0.054,0 -0.101,-0.016 -0.142,-0.049c-0.027,-0.022 -0.057,-0.041 -0.089,-0.057c-0.745,-0.372 -1.662,-0.753 -2.824,-0.753c-1.669,0 -3.235,0.757 -4.298,2.078c-1.051,1.306 -1.448,2.993 -1.091,4.625c0.442,2.098 2.165,3.742 4.377,4.184c0.375,0.087 0.757,0.13 1.134,0.13c0.943,0 1.863,-0.265 2.756,-0.802c0.075,-0.05 0.155,-0.075 0.239,-0.075c0.189,0 0.384,0.134 0.384,0.359v3c0,1.93 -1.57,3.5 -3.5,3.5h-4c-0.561,0 -1.044,0.279 -1.294,0.745c-0.235,0.44 -0.212,0.974 0.059,1.403c0.331,0.666 0.635,1.412 0.635,2.352c0,2.492 -2.013,4.519 -4.487,4.519c-0.333,0 -0.672,-0.036 -1.01,-0.108c-1.68,-0.354 -3.052,-1.804 -3.416,-3.623c-0.307,-1.33 0.125,-2.436 0.529,-3.11c0.293,-0.44 0.322,-1 0.076,-1.461c-0.24,-0.449 -0.686,-0.717 -1.192,-0.717h-4c-1.93,0 -3.5,-1.57 -3.5,-3.5v-16c0,-1.93 1.57,-3.5 3.5,-3.5h17.999M38.9,13.981h-18c-2.2,0 -4,1.8 -4,4v16c0,2.2 1.8,4 4,4h4c0.7,0 1.1,0.8 0.7,1.4c-0.6,1 -0.9,2.2 -0.6,3.5c0.4,2 1.9,3.6 3.8,4c0.378,0.081 0.751,0.119 1.113,0.119c2.793,0 4.987,-2.274 4.987,-5.019c0,-1 -0.3,-1.8 -0.7,-2.6c-0.4,-0.6 0,-1.4 0.8,-1.4h4c2.2,0 4,-1.8 4,-4v-3c0,-0.509 -0.422,-0.859 -0.884,-0.859c-0.173,0 -0.352,0.05 -0.516,0.159c-0.732,0.439 -1.571,0.718 -2.478,0.718c-0.332,0 -0.673,-0.037 -1.022,-0.118c-2,-0.4 -3.6,-1.9 -4,-3.8c-0.7,-3.2 1.8,-6.1 4.9,-6.1c1,0 1.8,0.3 2.6,0.7c0.137,0.109 0.296,0.159 0.455,0.159c0.423,0 0.845,-0.35 0.845,-0.859v-3c0,-2.2 -1.8,-4 -4,-4z" fill="url(#color-3)"></path></g></g></svg>