<?xml version="1.0" encoding="utf-8"?>
<!-- Generator: Adobe Illustrator 27.5.0, SVG Export Plug-In . SVG Version: 6.00 Build 0)  -->
<svg version="1.1" id="Capa_1" xmlns="http://www.w3.org/2000/svg" xmlns:xlink="http://www.w3.org/1999/xlink" x="0px" y="0px"
	 viewBox="0 0 2198 2048" style="enable-background:new 0 0 2198 2048;" xml:space="preserve">
<path style="fill:#E73929;" d="M532.782,1580.661L532.782,1580.661l0.016,0.015c6.024,5.663,12.07,11.269,18.137,16.818l0.092,0.085
	c54.706,50.028,111.039,95.359,167.167,134.517l0.255,0.179c5.652,3.943,11.301,7.804,16.947,11.62
	c0.84,0.568,1.68,1.143,2.519,1.708c5.212,3.505,10.418,6.94,15.621,10.335c1.271,0.829,2.541,1.662,3.811,2.484
	c4.927,3.191,9.848,6.322,14.764,9.411c1.532,0.963,3.063,1.92,4.594,2.873c4.727,2.942,9.448,5.836,14.162,8.68
	c1.704,1.029,3.406,2.042,5.109,3.058c4.59,2.739,9.175,5.442,13.75,8.086c1.783,1.031,3.562,2.036,5.343,3.052
	c4.522,2.58,9.039,5.137,13.542,7.622c1.765,0.974,3.523,1.913,5.286,2.874c4.521,2.462,9.039,4.909,13.539,7.272
	c1.622,0.852,3.232,1.66,4.852,2.499c4.645,2.408,9.289,4.806,13.908,7.106c0.903,0.449,1.796,0.866,2.697,1.311
	c15.162,7.487,30.163,14.353,44.982,20.631c2.26,0.957,4.533,1.956,6.784,2.884c3.377,1.393,6.723,2.692,10.08,4.019
	c2.763,1.093,5.535,2.21,8.284,3.257c3.139,1.196,6.252,2.316,9.371,3.453c2.93,1.068,5.862,2.144,8.773,3.158
	c2.992,1.043,5.962,2.024,8.935,3.011c3,0.996,5.998,1.984,8.977,2.922c2.875,0.905,5.733,1.763,8.587,2.613
	c3.046,0.906,6.082,1.79,9.102,2.634c2.759,0.77,5.505,1.51,8.244,2.227c3.075,0.805,6.133,1.572,9.181,2.31
	c2.657,0.643,5.308,1.271,7.943,1.863c3.093,0.693,6.162,1.332,9.225,1.953c2.54,0.515,5.08,1.032,7.598,1.498
	c3.145,0.58,6.256,1.088,9.366,1.59c2.389,0.385,4.786,0.79,7.154,1.128c3.25,0.464,6.457,0.836,9.666,1.211
	c2.177,0.254,4.371,0.546,6.529,0.758c3.549,0.349,7.044,0.586,10.539,0.822c1.764,0.119,3.553,0.293,5.304,0.383
	c5.22,0.268,10.387,0.421,15.481,0.427c338.844-0.349,965.573-587.129,1013.285-1075.193
	c26.245-268.477-89.315-503.364-342.27-611.199c-6.319-2.694-12.617-5.205-18.903-7.611c-1.977-0.757-3.947-1.457-5.921-2.186
	c-4.38-1.618-8.754-3.184-13.117-4.665c-2.186-0.742-4.367-1.463-6.548-2.172c-4.331-1.406-8.652-2.738-12.965-4.012
	c-1.968-0.581-3.938-1.184-5.902-1.738c-5.566-1.571-11.115-3.04-16.646-4.395c-0.615-0.151-1.234-0.328-1.848-0.476
	c-6.259-1.507-12.49-2.86-18.701-4.097c-1.458-0.29-2.908-0.535-4.363-0.81c-4.751-0.9-9.491-1.737-14.213-2.482
	c-1.804-0.285-3.603-0.547-5.402-0.81c-4.553-0.664-9.091-1.257-13.615-1.78c-1.607-0.186-3.216-0.385-4.819-0.553
	c-5.568-0.584-11.116-1.077-16.637-1.452l-1.31-0.104c-6.295-0.41-12.558-0.684-18.789-0.829l-1.343-0.013
	c-5.558-0.113-11.087-0.115-16.591-0.023c-1.203,0.02-2.401,0.057-3.601,0.087c-4.943,0.123-9.865,0.324-14.763,0.608
	c-1.094,0.064-2.19,0.121-3.282,0.193c-5.716,0.374-11.406,0.836-17.056,1.425l-0.297,0.027c-12.122,1.27-24.081,3.041-35.879,5.255
	c-0.56,0.105-1.116,0.22-1.675,0.327c-5.266,1.01-10.498,2.111-15.695,3.3c-0.676,0.154-1.351,0.307-2.025,0.465
	c-5.601,1.308-11.167,2.702-16.685,4.213l0.045,0.077c-208.099,56.968-355.771,255.485-362.469,420.779
	c-9.697-239.286-314.727-548.434-671.015-396.547C175.029,308.46,59.468,543.346,85.714,811.823
	C111.469,1075.275,305.954,1367.442,532.782,1580.661z"/>
<path style="fill:#E12D1D;" d="M1770.014,200.624c-6.319-2.694-12.617-5.204-18.903-7.611c-1.977-0.757-3.947-1.457-5.921-2.186
	c-4.38-1.618-8.755-3.184-13.117-4.665c-2.186-0.742-4.367-1.463-6.549-2.172c-4.331-1.406-8.652-2.738-12.964-4.012
	c-1.969-0.581-3.938-1.184-5.902-1.738c-5.566-1.57-11.115-3.039-16.646-4.395c-0.615-0.15-1.234-0.328-1.849-0.476
	c-6.258-1.507-12.49-2.86-18.701-4.097c-1.458-0.29-2.907-0.534-4.363-0.81c-4.751-0.9-9.491-1.737-14.213-2.482
	c-1.804-0.285-3.603-0.548-5.402-0.81c-4.553-0.664-9.091-1.257-13.615-1.78c-1.607-0.186-3.216-0.384-4.819-0.552
	c-5.568-0.584-11.116-1.077-16.637-1.452l-1.31-0.104c-6.295-0.41-12.558-0.684-18.789-0.829l-1.344-0.014
	c-5.558-0.113-11.087-0.115-16.591-0.022c-1.203,0.02-2.401,0.057-3.601,0.087c-4.943,0.123-9.865,0.324-14.763,0.608
	c-1.094,0.064-2.19,0.121-3.282,0.193c-5.716,0.374-11.406,0.836-17.056,1.425l-0.297,0.028
	c-12.121,1.271-24.082,3.039-35.879,5.255c-0.559,0.104-1.116,0.22-1.674,0.327c-5.266,1.01-10.498,2.111-15.695,3.3
	c-0.676,0.154-1.351,0.307-2.025,0.465c-5.601,1.308-11.168,2.702-16.685,4.213c66.157,106.487,92.829,236.901,79.142,376.911
	c-12.267,125.488-64.533,257.781-140.666,384.202c11.801,0.536,22.443,6.427,29.02,16.18l46.308,68.676h180.453
	c20.412,0,36.96,16.548,36.96,36.96c0,20.413-16.548,36.96-36.96,36.96h-200.107c-12.289,0-23.774-6.109-30.643-16.295
	l-25.316-37.543l-54.346,87.858c-6.741,10.897-18.638,17.516-31.432,17.516l-0.461-0.003c-12.966-0.161-24.899-7.108-31.446-18.302
	l-7.934-13.57c-214.027,263.695-508.829,467.006-703.978,467.207c-12.033-0.012-24.486-0.889-37.235-2.412l0,0l0.016,0.015
	c6.024,5.663,12.07,11.268,18.137,16.818l0.092,0.085c54.701,50.024,111.047,95.355,167.167,134.517l0.254,0.179
	c5.653,3.943,11.302,7.804,16.948,11.62c0.84,0.568,1.68,1.143,2.519,1.708c5.212,3.505,10.418,6.94,15.621,10.335
	c1.271,0.829,2.541,1.662,3.811,2.484c4.927,3.191,9.848,6.322,14.764,9.41c1.532,0.963,3.063,1.92,4.594,2.873
	c4.727,2.941,9.448,5.836,14.162,8.68c1.705,1.029,3.407,2.042,5.109,3.058c4.591,2.739,9.175,5.442,13.75,8.086
	c1.783,1.031,3.562,2.036,5.343,3.052c4.521,2.58,9.039,5.137,13.542,7.622c1.765,0.975,3.523,1.914,5.286,2.874
	c4.521,2.462,9.039,4.909,13.539,7.273c1.622,0.852,3.232,1.66,4.852,2.499c4.645,2.408,9.289,4.806,13.908,7.105
	c0.903,0.45,1.796,0.866,2.697,1.312c15.162,7.487,30.162,14.353,44.982,20.63c2.26,0.958,4.532,1.957,6.784,2.885
	c3.377,1.393,6.723,2.692,10.079,4.019c2.764,1.093,5.535,2.21,8.284,3.257c3.14,1.196,6.252,2.315,9.372,3.452
	c2.93,1.068,5.862,2.144,8.773,3.159c2.993,1.043,5.963,2.024,8.936,3.011c3,0.996,5.998,1.984,8.977,2.922
	c2.875,0.905,5.733,1.763,8.587,2.613c3.046,0.906,6.082,1.79,9.102,2.634c2.759,0.77,5.505,1.51,8.244,2.227
	c3.074,0.805,6.133,1.572,9.18,2.31c2.657,0.643,5.308,1.271,7.944,1.862c3.093,0.694,6.162,1.333,9.225,1.954
	c2.54,0.515,5.08,1.032,7.598,1.498c3.145,0.58,6.256,1.088,9.366,1.59c2.389,0.385,4.786,0.79,7.154,1.128
	c3.25,0.464,6.457,0.836,9.666,1.211c2.177,0.254,4.371,0.546,6.529,0.758c3.549,0.349,7.044,0.586,10.539,0.822
	c1.764,0.119,3.553,0.293,5.304,0.383c5.22,0.268,10.387,0.421,15.481,0.427c338.844-0.349,965.573-587.13,1013.285-1075.193
	C2138.529,543.346,2022.968,308.46,1770.014,200.624z"/>
<path style="fill:#FFFFFF;" d="M1366.844,954.829l-52.116,84.251L1210.66,861.097c-7.274-12.442-21.098-19.546-35.458-18.133
	c-14.343,1.383-26.574,10.975-31.332,24.577l-108.215,309.146L916.367,989.513c-6.475-10.159-17.494-16.525-29.53-17.059
	c-12.033-0.539-23.575,4.834-30.924,14.38l-30.488,39.603l-283.122,0.114c-20.412,0.008-36.955,16.562-36.946,36.974
	c0.008,20.41,16.553,36.946,36.96,36.946h0.014l301.306-0.123c11.467-0.005,22.281-5.331,29.272-14.415l9.44-12.261l131.878,206.929
	c6.836,10.725,18.635,17.095,31.16,17.095c1.413,0,2.837-0.081,4.262-0.244c14.06-1.63,25.954-11.145,30.63-24.505l106.938-305.498
	l86.779,148.417l7.934,13.57c6.547,11.194,18.481,18.141,31.446,18.302l0.461,0.003c12.794,0,24.69-6.619,31.432-17.516
	l54.346-87.858l25.316,37.543c6.869,10.187,18.355,16.295,30.643,16.295h200.107c20.412,0,36.96-16.548,36.96-36.96
	c0-20.412-16.548-36.96-36.96-36.96h-180.453l-46.308-68.676c-6.577-9.753-17.219-15.643-29.02-16.18
	c-0.784-0.036-1.557-0.12-2.351-0.107C1385.004,937.566,1373.443,944.16,1366.844,954.829z"/>
<path style="fill:#EC6358;" d="M526.126,310.958c-16.564-35.588-58.846-50.995-94.432-34.445
	c-8.129,3.784-81.422,39.29-150.661,119.601C215.972,471.581,142.721,602.01,163.206,794.82
	c3.876,36.482,34.709,63.572,70.594,63.572c2.51,0,5.045-0.133,7.596-0.403c39.034-4.148,67.318-39.153,63.17-78.19
	c-28.392-267.216,178.201-370.109,187.48-374.579C527.373,388.537,542.635,346.424,526.126,310.958z"/>
<path style="fill:#EC6358;" d="M334.72,930.058c-13.631-35.005-51.592-53.876-87.479-42.771
	c-39.507,12.224-60.138,55.388-45.154,93.932c2.644,6.803,5.446,13.655,8.413,20.557c14.487,33.707,51.949,50.473,86.231,39.865
	c3.167-0.98,6.306-2.194,9.398-3.644c35.104-16.461,49.23-58.751,34.083-94.441C338.289,939.025,336.46,934.526,334.72,930.058z"/>
</svg>
